<?xml version="1.0" standalone="no"?><!DOCTYPE svg PUBLIC "-//W3C//DTD SVG 1.1//EN" "http://www.w3.org/Graphics/SVG/1.1/DTD/svg11.dtd"><svg t="1656729883346" class="icon" viewBox="0 0 1024 1024" version="1.1" xmlns="http://www.w3.org/2000/svg" p-id="4642" xmlns:xlink="http://www.w3.org/1999/xlink" width="200" height="200"><defs><style type="text/css">@font-face { font-family: element-icons; src: url("chrome-extension://moombeodfomdpjnpocobemoiaemednkg/fonts/element-icons.woff") format("woff"), url("chrome-extension://moombeodfomdpjnpocobemoiaemednkg/fonts/element-icons.ttf ") format("truetype"); }
@font-face { font-family: feedback-iconfont; src: url("//at.alicdn.com/t/font_1031158_u69w8yhxdu.woff2?t=1630033759944") format("woff2"), url("//at.alicdn.com/t/font_1031158_u69w8yhxdu.woff?t=1630033759944") format("woff"), url("//at.alicdn.com/t/font_1031158_u69w8yhxdu.ttf?t=1630033759944") format("truetype"); }
</style></defs><path d="M800.037628 960.010751 223.962372 960.010751c-52.980346 0-95.983874-43.003528-95.983874-95.983874l0-639.892491c0-52.980346 43.003528-95.983874 95.983874-95.983874l447.924744 0c17.717453 0 31.994625 14.277171 31.994625 31.994625s-14.277171 31.994625-31.994625 31.994625L223.962372 192.139761c-17.545439 0-31.994625 14.449185-31.994625 31.994625l0 639.892491c0 17.717453 14.449185 31.994625 31.994625 31.994625l575.903242 0c17.717453 0 31.994625-14.277171 31.994625-31.994625L831.860239 351.94087c0-17.717453 14.277171-31.994625 31.994625-31.994625 17.717453 0 31.994625 14.277171 31.994625 31.994625l0 511.913993C896.021502 916.835209 852.84596 960.010751 800.037628 960.010751z" p-id="4643"></path><path d="M612.026205 447.924744c-8.256677 0-16.341341-3.096254-22.705863-9.460776-12.55703-12.55703-12.55703-32.682681 0-45.239711L907.374433 75.34218c12.55703-12.55703 32.682681-12.55703 45.239711 0s12.55703 32.682681 0 45.239711L634.560054 438.635982C628.367546 444.82849 620.110868 447.924744 612.026205 447.924744z" p-id="4644"></path><path d="M479.919368 447.924744 287.951621 447.924744c-17.717453 0-31.994625-14.277171-31.994625-31.994625s14.277171-31.994625 31.994625-31.994625L479.919368 383.935495c17.717453 0 31.994625 14.277171 31.994625 31.994625C511.913993 433.647573 497.636822 447.924744 479.919368 447.924744z" p-id="4645"></path><path d="M672.05913 639.892491 287.951621 639.892491c-17.717453 0-31.994625-14.277171-31.994625-31.994625s14.277171-31.994625 31.994625-31.994625l383.935495 0c17.717453 0 31.994625 14.277171 31.994625 31.994625S689.604569 639.892491 672.05913 639.892491z" p-id="4646"></path></svg>