<?xml version="1.0" standalone="no"?><!DOCTYPE svg PUBLIC "-//W3C//DTD SVG 1.1//EN" "http://www.w3.org/Graphics/SVG/1.1/DTD/svg11.dtd"><svg t="1655538429114" class="icon" viewBox="0 0 1024 1024" version="1.1" xmlns="http://www.w3.org/2000/svg" p-id="2569" xmlns:xlink="http://www.w3.org/1999/xlink" width="200" height="200"><defs><style type="text/css">@font-face { font-family: element-icons; src: url("chrome-extension://moombeodfomdpjnpocobemoiaemednkg/fonts/element-icons.woff") format("woff"), url("chrome-extension://moombeodfomdpjnpocobemoiaemednkg/fonts/element-icons.ttf ") format("truetype"); }
@font-face { font-family: feedback-iconfont; src: url("//at.alicdn.com/t/font_1031158_u69w8yhxdu.woff2?t=1630033759944") format("woff2"), url("//at.alicdn.com/t/font_1031158_u69w8yhxdu.woff?t=1630033759944") format("woff"), url("//at.alicdn.com/t/font_1031158_u69w8yhxdu.ttf?t=1630033759944") format("truetype"); }
</style></defs><path d="M508.928 854.016c-6.656 0-12.8-2.56-17.92-7.168l-297.472-297.472c-43.008-43.008-66.56-100.352-66.56-160.768s23.552-117.76 66.56-160.768c42.496-42.496 102.4-58.368 169.984-44.544 57.344 11.264 115.712 43.52 160.256 87.552 9.728 9.728 9.728 25.6 0 35.328-9.728 9.728-25.6 9.728-35.328 0-72.704-72.704-192.512-109.568-259.072-43.008-33.28 33.28-51.712 77.824-51.712 125.44s18.432 92.16 51.712 125.44l297.472 297.472c9.728 9.728 9.728 25.6 0 35.328-5.12 4.608-11.264 7.168-17.92 7.168z" fill="#2c2c2c" p-id="2570"></path><path d="M513.024 854.016c-6.656 0-12.8-2.56-17.92-7.168-9.728-9.728-9.728-25.6 0-35.328l297.472-297.472c33.28-33.28 51.712-77.824 51.712-125.44s-18.432-92.16-51.712-125.44c-40.96-40.96-98.304-38.4-129.024-32.768-49.664 8.704-101.376 35.328-137.728 71.68-9.728 9.728-25.6 9.728-35.328 0-9.728-9.728-9.728-25.6 0-35.328 44.032-44.032 103.936-75.264 164.352-85.504 69.12-12.288 130.56 4.608 173.056 46.592 43.008 43.008 66.56 100.352 66.56 160.768 0 60.928-23.552 117.76-66.56 160.768l-297.472 297.472c-4.096 4.608-10.752 7.168-17.408 7.168z" fill="#2c2c2c" p-id="2571"></path></svg>