<?xml version="1.0" standalone="no"?><!DOCTYPE svg PUBLIC "-//W3C//DTD SVG 1.1//EN" "http://www.w3.org/Graphics/SVG/1.1/DTD/svg11.dtd"><svg t="1604991002957" class="icon" viewBox="0 0 1024 1024" version="1.1" xmlns="http://www.w3.org/2000/svg" p-id="18438" xmlns:xlink="http://www.w3.org/1999/xlink" width="200" height="200"><defs><style type="text/css">@font-face { font-family: element-icons; src: url("chrome-extension://moombeodfomdpjnpocobemoiaemednkg/fonts/element-icons.woff") format("woff"), url("chrome-extension://moombeodfomdpjnpocobemoiaemednkg/fonts/element-icons.ttf ") format("truetype"); }
</style></defs><path d="M881.777778 0h-739.555556c-79.644444 0-142.222222 62.577778-142.222222 142.222222v739.555556c0 79.644444 62.577778 142.222222 142.222222 142.222222h739.555556c79.644444 0 142.222222-62.577778 142.222222-142.222222v-739.555556c0-79.644444-62.577778-142.222222-142.222222-142.222222z m85.333333 881.777778c0 45.511111-39.822222 85.333333-85.333333 85.333333h-739.555556c-45.511111 0-85.333333-39.822222-85.333333-85.333333v-739.555556c0-45.511111 39.822222-85.333333 85.333333-85.333333h739.555556c45.511111 0 85.333333 39.822222 85.333333 85.333333v739.555556z" p-id="18439"></path><path d="M807.822222 483.555556h-585.955555c-17.066667 0-28.444444 11.377778-28.444445 28.444444s11.377778 28.444444 28.444445 28.444444h585.955555c17.066667 0 28.444444-11.377778 28.444445-28.444444s-17.066667-28.444444-28.444445-28.444444z" p-id="18440"></path></svg>