<?xml version="1.0" standalone="no"?><!DOCTYPE svg PUBLIC "-//W3C//DTD SVG 1.1//EN" "http://www.w3.org/Graphics/SVG/1.1/DTD/svg11.dtd"><svg t="1673241205550" class="icon" viewBox="0 0 1024 1024" version="1.1" xmlns="http://www.w3.org/2000/svg" p-id="3479" xmlns:xlink="http://www.w3.org/1999/xlink" width="200" height="200"><path d="M512 0C321.184 0 128 54.96 128 160v704c0 105.04 193.184 160 384 160s384-54.96 384-160V160C896 54.96 702.816 0 512 0z m320 476.544V640c0 38.224-127.632 96-320 96s-320-57.776-320-96V476.544c0.832 0.496 1.76 0.976 2.608 1.488 2.944 1.76 5.984 3.488 9.088 5.184l4.352 2.352c3.68 1.92 7.472 3.776 11.36 5.616 0.88 0.416 1.712 0.848 2.608 1.248 4.8 2.208 9.696 4.32 14.736 6.4 1.456 0.592 2.96 1.152 4.448 1.728q5.6 2.208 11.392 4.304a451.2 451.2 0 0 0 17.44 5.904c1.6 0.528 3.2 1.072 4.912 1.6q8.384 2.592 17.088 4.96l3.552 0.928q7.12 1.904 14.4 3.648l6.224 1.456c4.24 0.976 8.528 1.904 12.8 2.816 2.08 0.432 4.16 0.88 6.256 1.296q8.176 1.6 16.544 3.104c0.848 0.16 1.696 0.336 2.56 0.48q9.6 1.6 19.44 3.104l6.016 0.848c4.8 0.672 9.472 1.296 14.256 1.888l6.848 0.832c5.024 0.576 10.08 1.104 15.168 1.6 1.776 0.176 3.536 0.368 5.312 0.528q10.192 0.96 20.464 1.696c1.52 0.112 3.024 0.176 4.544 0.272q8.16 0.544 16.368 0.96l6.8 0.304c4.992 0.224 10 0.384 15.024 0.528l6.4 0.176c6.976 0.144 13.968 0.24 20.944 0.24s13.968-0.096 20.944-0.24l6.4-0.176c5.024-0.144 10.032-0.304 15.024-0.528l6.8-0.304q8.208-0.4 16.368-0.96c1.52-0.096 3.024-0.16 4.544-0.272q10.272-0.736 20.448-1.696c1.808-0.16 3.568-0.352 5.344-0.528 5.088-0.512 10.144-1.04 15.152-1.6l6.848-0.832c4.8-0.592 9.6-1.216 14.256-1.888l6.016-0.848q9.824-1.472 19.44-3.104c0.864-0.144 1.712-0.32 2.56-0.48q8.368-1.456 16.544-3.104c2.096-0.416 4.176-0.864 6.256-1.296 4.32-0.912 8.608-1.84 12.8-2.816l6.224-1.456q7.328-1.744 14.4-3.648l3.552-0.928q8.704-2.368 17.088-4.96c1.6-0.496 3.2-1.04 4.912-1.6a430.208 430.208 0 0 0 28.832-10.192l4.448-1.744c5.04-2.064 9.968-4.176 14.736-6.4 0.896-0.4 1.728-0.832 2.608-1.248 3.888-1.84 7.68-3.696 11.36-5.616l4.352-2.352c3.104-1.696 6.144-3.424 9.088-5.184 0.944-0.512 1.872-0.992 2.704-1.488z m0-224V384c0 38.224-127.632 96-320 96s-320-57.776-320-96v-131.456c0.832 0.496 1.76 0.976 2.608 1.488 2.944 1.76 5.984 3.488 9.088 5.184l4.352 2.352c3.68 1.92 7.472 3.776 11.36 5.616 0.88 0.416 1.712 0.848 2.608 1.248 4.8 2.208 9.696 4.32 14.736 6.4 1.456 0.592 2.96 1.152 4.448 1.728q5.6 2.208 11.392 4.304a451.2 451.2 0 0 0 17.44 5.904c1.6 0.528 3.2 1.072 4.912 1.6q8.384 2.592 17.088 4.96l3.552 0.928q7.12 1.888 14.4 3.648l6.224 1.456c4.24 0.976 8.528 1.904 12.8 2.816 2.08 0.432 4.16 0.88 6.256 1.296q8.176 1.6 16.544 3.104c0.848 0.16 1.696 0.336 2.56 0.48q9.6 1.6 19.44 3.104l6.016 0.848c4.8 0.672 9.472 1.296 14.256 1.888l6.848 0.832c5.024 0.576 10.08 1.104 15.168 1.6 1.776 0.176 3.536 0.368 5.312 0.528q10.192 0.96 20.464 1.696c1.52 0.112 3.024 0.176 4.544 0.272q8.16 0.56 16.368 0.96l6.8 0.304c4.992 0.224 10 0.384 15.024 0.528l6.4 0.176c6.976 0.144 13.968 0.24 20.944 0.24s13.968-0.096 20.944-0.24l6.4-0.176c5.024-0.144 10.032-0.304 15.024-0.528l6.8-0.304q8.208-0.4 16.368-0.96c1.52-0.096 3.024-0.16 4.544-0.272q10.272-0.736 20.448-1.696c1.808-0.16 3.568-0.352 5.344-0.528 5.088-0.512 10.144-1.04 15.152-1.6l6.848-0.832c4.8-0.592 9.6-1.216 14.256-1.888l6.016-0.848q9.824-1.456 19.44-3.104c0.864-0.144 1.712-0.32 2.56-0.48q8.368-1.456 16.544-3.104c2.096-0.416 4.176-0.864 6.256-1.296 4.32-0.912 8.608-1.84 12.8-2.816l6.224-1.456q7.328-1.76 14.4-3.648l3.552-0.928q8.704-2.368 17.088-4.96c1.6-0.496 3.2-1.04 4.912-1.6a430.208 430.208 0 0 0 28.832-10.192l4.448-1.744c5.04-2.064 9.968-4.176 14.736-6.4 0.896-0.4 1.728-0.832 2.608-1.248 3.888-1.84 7.68-3.696 11.36-5.616l4.352-2.352c3.104-1.696 6.144-3.424 9.088-5.184 0.944-0.512 1.872-0.992 2.704-1.488zM512 64c192.368 0 320 57.776 320 96s-127.632 96-320 96-320-57.776-320-96 127.632-96 320-96z m320 800c0 38.224-127.632 96-320 96s-320-57.776-320-96v-131.456c0.832 0.496 1.76 0.976 2.608 1.488 2.944 1.76 5.984 3.488 9.088 5.184l4.352 2.352c3.68 1.92 7.472 3.776 11.36 5.616 0.88 0.416 1.712 0.848 2.608 1.248 4.8 2.208 9.696 4.32 14.736 6.4 1.456 0.592 2.96 1.152 4.448 1.728q5.6 2.208 11.392 4.304a451.2 451.2 0 0 0 17.44 5.904c1.6 0.528 3.2 1.072 4.912 1.6q8.384 2.592 17.088 4.96l3.552 0.928q7.12 1.904 14.4 3.648l6.224 1.456c4.24 0.976 8.528 1.904 12.8 2.816 2.08 0.432 4.16 0.88 6.256 1.296q8.176 1.6 16.544 3.104c0.848 0.16 1.696 0.336 2.56 0.48q9.6 1.6 19.44 3.104l6.016 0.848c4.8 0.672 9.472 1.296 14.256 1.888l6.848 0.832c5.024 0.576 10.08 1.104 15.168 1.6 1.776 0.176 3.536 0.368 5.312 0.528q10.192 0.96 20.464 1.696c1.52 0.112 3.024 0.176 4.544 0.272q8.16 0.544 16.368 0.96l6.8 0.304c4.992 0.224 10 0.384 15.024 0.528l6.4 0.176c6.976 0.144 13.968 0.24 20.944 0.24s13.968-0.096 20.944-0.24l6.4-0.176c5.024-0.144 10.032-0.304 15.024-0.528l6.8-0.304q8.208-0.4 16.368-0.96c1.52-0.096 3.024-0.16 4.544-0.272q10.272-0.736 20.448-1.696c1.808-0.16 3.568-0.352 5.344-0.528 5.088-0.512 10.144-1.04 15.152-1.6l6.848-0.832c4.8-0.592 9.6-1.216 14.256-1.888l6.016-0.848q9.824-1.472 19.44-3.104c0.864-0.144 1.712-0.32 2.56-0.48q8.368-1.456 16.544-3.104c2.096-0.416 4.176-0.864 6.256-1.296 4.32-0.912 8.608-1.84 12.8-2.816l6.224-1.456q7.328-1.744 14.4-3.648l3.552-0.928q8.704-2.368 17.088-4.96c1.6-0.496 3.2-1.04 4.912-1.6a430.208 430.208 0 0 0 28.832-10.192l4.448-1.744c5.04-2.064 9.968-4.176 14.736-6.4 0.896-0.4 1.728-0.832 2.608-1.248 3.888-1.84 7.68-3.696 11.36-5.616l4.352-2.352c3.104-1.696 6.144-3.424 9.088-5.184 0.848-0.512 1.776-0.992 2.608-1.488z" fill="#8a8a8a" p-id="3480"></path></svg>