<?xml version="1.0" standalone="no"?><!DOCTYPE svg PUBLIC "-//W3C//DTD SVG 1.1//EN" "http://www.w3.org/Graphics/SVG/1.1/DTD/svg11.dtd"><svg t="1605676451383" class="icon" viewBox="0 0 1024 1024" version="1.1" xmlns="http://www.w3.org/2000/svg" p-id="2829" xmlns:xlink="http://www.w3.org/1999/xlink" width="200" height="200"><defs><style type="text/css">@font-face { font-family: element-icons; src: url("chrome-extension://moombeodfomdpjnpocobemoiaemednkg/fonts/element-icons.woff") format("woff"), url("chrome-extension://moombeodfomdpjnpocobemoiaemednkg/fonts/element-icons.ttf ") format("truetype"); }
</style></defs><path d="M512 96C281.6 96 96 281.6 96 512s185.6 416 416 416 416-185.6 416-416S742.4 96 512 96z m0 800c-212.8 0-384-171.2-384-384s171.2-384 384-384 384 171.2 384 384-171.2 384-384 384z m0-800c-115.2 0-208 185.6-208 416s92.8 416 208 416 208-185.6 208-416S627.2 96 512 96z m0 800c-97.6 0-176-171.2-176-384s78.4-384 176-384 176 171.2 176 384-78.4 384-176 384zM112 496h800v32H112v-32z" p-id="2830" fill="#ffffff"></path></svg>