<?xml version="1.0" standalone="no"?><!DOCTYPE svg PUBLIC "-//W3C//DTD SVG 1.1//EN" "http://www.w3.org/Graphics/SVG/1.1/DTD/svg11.dtd"><svg t="1590825697656" class="icon" viewBox="0 0 1024 1024" version="1.1" xmlns="http://www.w3.org/2000/svg" p-id="3229" xmlns:xlink="http://www.w3.org/1999/xlink" width="200" height="200"><defs><style type="text/css"></style></defs><path d="M192 443.733333c-38.4 0-68.266667 29.866667-68.266667 68.266667 0 38.4 29.866667 68.266667 68.266667 68.266667s68.266667-29.866667 68.266667-68.266667c0-38.4-29.866667-68.266667-68.266667-68.266667zM512 443.733333c-38.4 0-68.266667 29.866667-68.266667 68.266667 0 38.4 29.866667 68.266667 68.266667 68.266667s68.266667-29.866667 68.266667-68.266667c0-38.4-29.866667-68.266667-68.266667-68.266667zM832 443.733333c-38.4 0-68.266667 29.866667-68.266667 68.266667 0 38.4 29.866667 68.266667 68.266667 68.266667s68.266667-29.866667 68.266667-68.266667c0-38.4-34.133333-68.266667-68.266667-68.266667z" fill="#111111" p-id="3230"></path></svg>