<?xml version="1.0" standalone="no"?><!DOCTYPE svg PUBLIC "-//W3C//DTD SVG 1.1//EN" "http://www.w3.org/Graphics/SVG/1.1/DTD/svg11.dtd"><svg t="1622338995859" class="icon" viewBox="0 0 1024 1024" version="1.1" xmlns="http://www.w3.org/2000/svg" p-id="2393" xmlns:xlink="http://www.w3.org/1999/xlink" width="200" height="200"><defs><style type="text/css">@font-face { font-family: element-icons; src: url("chrome-extension://moombeodfomdpjnpocobemoiaemednkg/fonts/element-icons.woff") format("woff"), url("chrome-extension://moombeodfomdpjnpocobemoiaemednkg/fonts/element-icons.ttf ") format("truetype"); }
</style></defs><path d="M802.9 495.6V408c0-4.4-3.6-8-8-8H32c-17.7 0-32-14.3-32-32s14.3-32 32-32h762.9c4.4 0 8-3.6 8-8v-87.7L1024 368 802.9 495.6zM1024 656c0 17.7-14.3 32-32 32H229.1c-4.4 0-8 3.6-8 8v87.6L0 656l221.1-127.7V616c0 4.4 3.6 8 8 8H992c17.7 0 32 14.3 32 32z" p-id="2394"></path></svg>