<?xml version="1.0" standalone="no"?><!DOCTYPE svg PUBLIC "-//W3C//DTD SVG 1.1//EN" "http://www.w3.org/Graphics/SVG/1.1/DTD/svg11.dtd"><svg t="1604987944717" class="icon" viewBox="0 0 1024 1024" version="1.1" xmlns="http://www.w3.org/2000/svg" p-id="2892" xmlns:xlink="http://www.w3.org/1999/xlink" width="200" height="200"><defs><style type="text/css">@font-face { font-family: element-icons; src: url("chrome-extension://moombeodfomdpjnpocobemoiaemednkg/fonts/element-icons.woff") format("woff"), url("chrome-extension://moombeodfomdpjnpocobemoiaemednkg/fonts/element-icons.ttf ") format("truetype"); }
</style></defs><path d="M989.29 161.53L861.47 33.71a90.1 90.1 0 0 0-127.28 0l-69.53 69.53a89.24 89.24 0 0 0-4.29 4.64 29.14 29.14 0 0 0-2.85 2.5L16.83 751.06c-0.35 0.35-0.69 0.71-1 1.07l-0.45 0.52-0.51 0.59-0.54 0.69c-0.12 0.15-0.24 0.3-0.35 0.46s-0.37 0.52-0.56 0.78l-0.28 0.41-0.53 0.81c-0.08 0.14-0.17 0.28-0.26 0.42s-0.31 0.54-0.46 0.82l-0.27 0.47-0.4 0.77-0.27 0.55c-0.11 0.24-0.22 0.48-0.32 0.72s-0.19 0.43-0.28 0.65-0.17 0.43-0.26 0.64l-0.28 0.75c-0.07 0.19-0.13 0.38-0.19 0.57s-0.19 0.56-0.27 0.84l-0.15 0.5c-0.08 0.31-0.17 0.61-0.24 0.92s-0.08 0.32-0.11 0.47q-0.12 0.48-0.21 1l-0.09 0.48c-0.06 0.32-0.11 0.64-0.16 1s0 0.37-0.07 0.55-0.08 0.59-0.11 0.9 0 0.49 0 0.74l-0.06 0.72V987a30 30 0 0 0 30 30h209.77a29.87 29.87 0 0 0 19.06-6.84 30.13 30.13 0 0 0 5-4l604-604 36.69-36.69a30.35 30.35 0 0 0 2.5-2.85 89.24 89.24 0 0 0 4.64-4.29l69.53-69.53a90.1 90.1 0 0 0-0.05-127.27zM236.25 957H68.05V784.7l574-574L812.29 381z m710.62-710.62l-69.53 69.53a30.19 30.19 0 0 1-42.43 0L707.09 188.09a30.19 30.19 0 0 1 0-42.43l69.53-69.53a30 30 0 0 1 42.42 0L946.87 204a30 30 0 0 1 0 42.38z" p-id="2893"></path></svg>